<svg id="svg" version="1.1" width="400" height="179.5" viewBox="0 0 400 179.5" xmlns="http://www.w3.org/2000/svg" xmlns:xlink="http://www.w3.org/1999/xlink" ><g id="svgg"><path id="path0" d="M0.000 89.767 L 0.000 179.533 200.000 179.533 L 400.000 179.533 400.000 89.767 L 400.000 0.000 200.000 0.000 L 0.000 0.000 0.000 89.767 M201.928 29.309 C 202.035 29.531,202.284 30.076,202.481 30.521 C 202.679 30.965,203.057 31.813,203.323 32.406 C 203.588 32.998,203.927 33.766,204.075 34.111 C 204.329 34.703,204.551 35.203,205.369 37.029 C 205.557 37.448,206.072 38.564,206.513 39.509 C 206.955 40.453,207.376 41.423,207.450 41.663 C 207.524 41.904,207.647 42.181,207.723 42.280 C 207.800 42.379,208.075 42.969,208.336 43.591 C 208.596 44.213,209.094 45.344,209.441 46.104 C 209.789 46.865,210.146 47.648,210.234 47.846 C 210.323 48.043,210.723 48.920,211.122 49.793 C 211.522 50.667,211.849 51.418,211.849 51.462 C 211.849 51.507,212.139 52.165,212.494 52.926 C 212.848 53.686,213.263 54.592,213.415 54.937 C 214.310 56.967,215.204 58.956,215.713 60.054 C 216.203 61.109,217.431 63.859,218.037 65.260 C 218.471 66.264,218.900 67.219,219.542 68.612 C 219.845 69.271,220.146 70.018,220.210 70.273 C 220.274 70.528,220.398 70.736,220.486 70.736 C 220.574 70.736,220.646 70.832,220.646 70.949 C 220.646 71.066,220.801 71.490,220.990 71.891 C 221.842 73.702,222.621 75.418,222.621 75.487 C 222.621 75.528,222.949 76.274,223.350 77.144 C 223.750 78.014,224.150 78.887,224.239 79.084 C 224.327 79.282,224.726 80.158,225.126 81.032 C 225.526 81.906,225.853 82.657,225.853 82.701 C 225.853 82.745,226.143 83.404,226.497 84.164 C 226.852 84.925,227.266 85.830,227.419 86.176 C 228.090 87.698,228.378 88.336,229.068 89.822 C 229.472 90.692,229.803 91.437,229.803 91.479 C 229.803 91.520,230.092 92.182,230.446 92.949 C 231.141 94.456,231.553 95.372,232.041 96.499 C 232.530 97.629,232.942 98.544,233.642 100.052 C 233.999 100.821,234.291 101.568,234.291 101.712 C 234.291 101.857,234.372 101.975,234.470 101.975 C 234.569 101.975,234.650 102.071,234.650 102.187 C 234.650 102.304,234.804 102.729,234.993 103.130 C 235.646 104.520,236.244 105.842,236.949 107.451 C 237.836 109.477,238.285 110.472,239.162 112.353 C 239.544 113.174,239.856 113.884,239.856 113.933 C 239.856 113.981,240.146 114.643,240.501 115.403 C 240.855 116.164,241.270 117.069,241.422 117.415 C 241.575 117.760,241.843 118.366,242.019 118.761 C 242.195 119.156,242.517 119.883,242.734 120.377 C 243.228 121.501,243.895 122.981,244.435 124.147 C 244.830 125.002,245.205 125.842,245.996 127.648 C 246.527 128.858,246.927 129.743,247.645 131.291 C 248.002 132.060,248.294 132.807,248.294 132.951 C 248.294 133.096,248.375 133.214,248.474 133.214 C 248.573 133.214,248.654 133.309,248.654 133.426 C 248.654 133.543,248.808 133.967,248.996 134.369 C 249.402 135.232,250.195 136.997,250.574 137.882 C 251.116 139.146,251.601 140.214,253.126 143.502 C 253.530 144.372,253.860 145.123,253.860 145.171 C 253.860 145.218,254.109 145.799,254.414 146.462 C 254.718 147.124,255.122 148.009,255.311 148.429 C 256.200 150.401,256.369 150.777,256.738 151.616 C 256.956 152.110,257.407 153.101,257.741 153.819 C 258.075 154.537,258.348 155.168,258.348 155.221 C 258.348 155.275,258.672 156.006,259.068 156.848 C 259.464 157.689,259.742 158.451,259.686 158.542 C 259.626 158.640,255.187 158.707,248.838 158.707 L 238.093 158.707 237.731 157.944 C 237.280 156.994,236.193 154.630,235.605 153.321 C 235.361 152.778,234.932 151.849,234.652 151.257 C 234.372 150.664,233.805 149.452,233.391 148.564 C 232.978 147.675,232.486 146.619,232.298 146.218 C 232.110 145.817,231.957 145.392,231.957 145.275 C 231.957 145.159,231.876 145.063,231.777 145.063 C 231.679 145.063,231.598 144.967,231.598 144.850 C 231.598 144.733,231.444 144.309,231.257 143.908 C 231.069 143.506,230.576 142.451,230.162 141.562 C 229.747 140.673,229.254 139.618,229.066 139.216 C 228.879 138.815,228.725 138.391,228.725 138.274 C 228.725 138.157,228.645 138.061,228.546 138.061 C 228.447 138.061,228.366 137.975,228.366 137.870 C 228.366 137.688,228.023 136.897,226.928 134.560 C 225.729 132.002,224.960 130.346,224.404 129.129 L 223.809 127.828 201.537 127.830 C 189.287 127.832,179.169 127.893,179.054 127.967 C 178.938 128.040,178.788 128.322,178.720 128.592 C 178.652 128.863,178.533 129.084,178.456 129.084 C 178.379 129.084,178.265 129.283,178.204 129.526 C 178.143 129.769,177.782 130.638,177.401 131.456 C 177.020 132.275,176.584 133.227,176.431 133.573 C 176.279 133.918,175.864 134.823,175.510 135.584 C 175.155 136.345,174.865 137.004,174.865 137.049 C 174.865 137.094,174.496 137.925,174.046 138.897 C 173.595 139.869,173.070 141.008,172.879 141.427 C 172.277 142.750,171.008 145.580,170.645 146.409 C 170.515 146.706,170.112 147.594,169.749 148.384 C 169.100 149.799,168.718 150.647,168.174 151.885 C 168.022 152.231,167.638 153.079,167.321 153.770 C 167.003 154.461,166.546 155.471,166.303 156.014 C 166.061 156.557,165.682 157.365,165.461 157.810 L 165.060 158.618 154.338 158.664 C 142.607 158.715,143.105 158.760,143.689 157.684 C 143.839 157.408,144.176 156.697,144.438 156.104 C 144.701 155.512,145.059 154.704,145.235 154.309 C 145.410 153.914,145.679 153.308,145.831 152.962 C 145.983 152.617,146.398 151.712,146.752 150.951 C 147.107 150.190,147.397 149.524,147.397 149.470 C 147.397 149.417,147.649 148.827,147.957 148.160 C 148.662 146.632,149.423 144.940,150.319 142.908 C 150.472 142.563,150.892 141.634,151.254 140.844 C 151.615 140.054,152.017 139.165,152.148 138.869 C 152.278 138.573,152.590 137.886,152.841 137.343 C 153.092 136.800,153.615 135.628,154.005 134.740 C 154.394 133.851,154.895 132.720,155.117 132.226 C 155.340 131.732,155.666 131.005,155.842 130.610 C 156.018 130.215,156.371 129.440,156.627 128.888 C 156.882 128.335,157.092 127.790,157.092 127.676 C 157.092 127.562,157.172 127.469,157.271 127.469 C 157.370 127.469,157.451 127.350,157.451 127.206 C 157.451 127.062,157.743 126.314,158.100 125.545 C 158.869 123.887,159.258 123.026,159.784 121.813 C 159.998 121.320,160.450 120.340,160.787 119.637 C 161.124 118.933,161.400 118.308,161.400 118.246 C 161.400 118.184,161.652 117.588,161.959 116.921 C 162.266 116.255,162.663 115.386,162.840 114.991 C 163.547 113.421,164.140 112.092,164.364 111.580 C 164.494 111.284,164.890 110.419,165.244 109.658 C 165.599 108.898,165.889 108.239,165.889 108.195 C 165.889 108.151,166.216 107.400,166.615 106.526 C 167.015 105.652,167.415 104.776,167.503 104.578 C 167.592 104.381,167.959 103.573,168.319 102.783 C 168.678 101.993,169.097 101.064,169.250 100.718 C 169.659 99.791,170.105 98.788,170.648 97.576 C 170.913 96.984,171.236 96.257,171.365 95.961 C 171.494 95.664,171.859 94.856,172.175 94.165 C 172.868 92.652,173.289 91.713,173.704 90.754 C 174.093 89.857,174.496 88.951,175.224 87.343 C 176.522 84.476,177.951 81.293,178.368 80.341 C 178.497 80.045,178.893 79.180,179.248 78.419 C 179.602 77.659,179.892 77.000,179.892 76.956 C 179.892 76.912,180.221 76.161,180.622 75.287 C 181.024 74.413,181.476 73.416,181.627 73.070 C 182.058 72.086,182.948 70.101,183.719 68.402 C 184.155 67.444,184.453 66.771,185.271 64.901 C 185.487 64.408,185.892 63.519,186.170 62.926 C 186.709 61.776,187.205 60.677,187.708 59.515 C 188.315 58.114,189.542 55.364,190.032 54.309 C 190.261 53.815,190.664 52.926,190.927 52.334 C 191.190 51.741,191.518 51.014,191.656 50.718 C 192.584 48.719,193.195 47.299,193.288 46.929 C 193.348 46.693,193.459 46.499,193.537 46.499 C 193.614 46.499,193.730 46.291,193.794 46.036 C 193.858 45.781,194.159 45.034,194.463 44.375 C 195.163 42.858,195.928 41.158,196.818 39.138 C 196.971 38.793,197.391 37.864,197.753 37.074 C 198.114 36.284,198.517 35.395,198.647 35.099 C 199.004 34.287,199.803 32.518,200.268 31.508 C 200.495 31.014,200.847 30.227,201.049 29.758 C 201.458 28.808,201.643 28.714,201.928 29.309 M200.949 79.858 C 200.637 80.519,200.125 81.625,199.811 82.316 C 199.497 83.007,199.047 83.992,198.812 84.504 C 198.577 85.016,198.384 85.521,198.384 85.626 C 198.384 85.731,198.303 85.817,198.205 85.817 C 198.106 85.817,198.025 85.913,198.025 86.029 C 198.025 86.146,197.871 86.571,197.682 86.972 C 197.494 87.374,197.123 88.187,196.858 88.779 C 196.594 89.372,196.150 90.341,195.873 90.934 C 195.595 91.526,195.188 92.415,194.967 92.908 C 194.448 94.072,193.465 96.213,192.825 97.576 C 192.547 98.169,192.156 99.017,191.956 99.461 C 191.756 99.906,191.295 100.916,190.931 101.706 C 190.568 102.496,190.087 103.546,189.863 104.039 C 189.640 104.533,189.273 105.341,189.049 105.835 C 188.824 106.329,188.406 107.258,188.119 107.899 C 187.831 108.541,187.518 109.208,187.423 109.381 C 187.259 109.679,187.987 109.695,201.596 109.695 L 215.942 109.695 215.427 108.662 C 214.944 107.697,214.231 106.151,213.294 104.039 C 212.578 102.427,212.177 101.543,211.663 100.449 C 211.124 99.299,210.100 97.074,209.432 95.601 C 207.907 92.235,207.160 90.601,206.561 89.318 C 206.237 88.627,205.792 87.657,205.570 87.163 C 205.348 86.670,204.939 85.781,204.661 85.189 C 204.383 84.596,203.915 83.586,203.622 82.944 C 203.328 82.303,202.838 81.230,202.531 80.561 C 202.225 79.892,201.975 79.276,201.975 79.192 C 201.975 78.438,201.462 78.771,200.949 79.858 " stroke="none" fill="#ffffff" fill-rule="evenodd"></path><path id="path1" d="M201.339 29.455 C 201.274 29.561,201.269 29.695,201.329 29.755 C 201.388 29.814,201.436 29.758,201.436 29.631 C 201.436 29.444,201.489 29.443,201.710 29.626 C 201.938 29.816,201.965 29.805,201.870 29.559 C 201.740 29.221,201.512 29.176,201.339 29.455 M203.962 34.560 C 203.962 34.659,204.078 34.942,204.219 35.189 C 204.360 35.435,204.476 35.557,204.476 35.458 C 204.476 35.359,204.360 35.076,204.219 34.829 C 204.078 34.583,203.962 34.461,203.962 34.560 M207.733 42.998 C 207.733 43.097,207.848 43.380,207.989 43.627 C 208.130 43.873,208.246 43.995,208.246 43.896 C 208.246 43.797,208.130 43.514,207.989 43.268 C 207.848 43.021,207.733 42.899,207.733 42.998 M194.464 44.801 C 194.163 45.461,194.220 45.602,194.545 45.002 C 194.697 44.722,194.788 44.459,194.747 44.418 C 194.706 44.377,194.578 44.549,194.464 44.801 M193.746 46.417 C 193.445 47.077,193.502 47.218,193.827 46.618 C 193.979 46.338,194.070 46.075,194.029 46.034 C 193.988 45.993,193.860 46.165,193.746 46.417 M210.964 50.180 C 210.964 50.278,211.080 50.561,211.221 50.808 C 211.362 51.055,211.477 51.176,211.477 51.077 C 211.477 50.978,211.362 50.696,211.221 50.449 C 211.080 50.202,210.964 50.081,210.964 50.180 M214.734 58.618 C 214.734 58.716,214.850 58.999,214.991 59.246 C 215.132 59.493,215.248 59.614,215.248 59.515 C 215.248 59.417,215.132 59.134,214.991 58.887 C 214.850 58.640,214.734 58.519,214.734 58.618 M187.462 60.421 C 187.161 61.081,187.218 61.222,187.544 60.621 C 187.696 60.341,187.786 60.078,187.745 60.037 C 187.704 59.996,187.577 60.169,187.462 60.421 M183.692 68.859 C 183.391 69.519,183.448 69.660,183.773 69.060 C 183.925 68.779,184.016 68.516,183.975 68.475 C 183.934 68.434,183.806 68.607,183.692 68.859 M182.974 70.474 C 182.673 71.135,182.730 71.276,183.055 70.675 C 183.207 70.395,183.298 70.132,183.257 70.091 C 183.216 70.050,183.088 70.223,182.974 70.474 M221.736 74.237 C 221.736 74.336,221.852 74.618,221.993 74.865 C 222.134 75.112,222.249 75.233,222.249 75.135 C 222.249 75.036,222.134 74.753,221.993 74.506 C 221.852 74.259,221.736 74.138,221.736 74.237 M180.460 76.040 C 180.159 76.700,180.217 76.841,180.542 76.241 C 180.694 75.961,180.784 75.698,180.743 75.657 C 180.702 75.616,180.575 75.788,180.460 76.040 M222.454 75.853 C 222.454 75.952,222.570 76.234,222.711 76.481 C 222.852 76.728,222.968 76.849,222.968 76.750 C 222.968 76.652,222.852 76.369,222.711 76.122 C 222.570 75.875,222.454 75.754,222.454 75.853 M203.244 81.598 C 203.244 81.697,203.360 81.979,203.501 82.226 C 203.642 82.473,203.757 82.594,203.757 82.496 C 203.757 82.397,203.642 82.114,203.501 81.867 C 203.360 81.620,203.244 81.499,203.244 81.598 M176.690 84.478 C 176.389 85.138,176.446 85.279,176.772 84.679 C 176.924 84.399,177.014 84.136,176.973 84.095 C 176.932 84.054,176.805 84.226,176.690 84.478 M226.225 84.291 C 226.225 84.390,226.340 84.672,226.481 84.919 C 226.622 85.166,226.738 85.287,226.738 85.189 C 226.738 85.090,226.622 84.807,226.481 84.560 C 226.340 84.313,226.225 84.192,226.225 84.291 M175.254 87.710 C 174.953 88.370,175.010 88.511,175.335 87.911 C 175.487 87.630,175.578 87.367,175.537 87.326 C 175.496 87.285,175.368 87.458,175.254 87.710 M207.015 89.856 C 207.015 89.955,207.130 90.238,207.271 90.485 C 207.412 90.732,207.528 90.853,207.528 90.754 C 207.528 90.655,207.412 90.373,207.271 90.126 C 207.130 89.879,207.015 89.758,207.015 89.856 M228.738 89.856 C 228.738 89.955,228.853 90.238,228.995 90.485 C 229.136 90.732,229.251 90.853,229.251 90.754 C 229.251 90.655,229.136 90.373,228.995 90.126 C 228.853 89.879,228.738 89.758,228.738 89.856 M208.271 92.549 C 208.271 92.648,208.387 92.931,208.528 93.178 C 208.669 93.425,208.784 93.546,208.784 93.447 C 208.784 93.348,208.669 93.066,208.528 92.819 C 208.387 92.572,208.271 92.451,208.271 92.549 M193.925 94.352 C 193.624 95.013,193.682 95.153,194.007 94.553 C 194.159 94.273,194.249 94.010,194.208 93.969 C 194.167 93.928,194.040 94.100,193.925 94.352 M208.989 94.165 C 208.989 94.264,209.105 94.547,209.246 94.794 C 209.387 95.040,209.503 95.162,209.503 95.063 C 209.503 94.964,209.387 94.681,209.246 94.434 C 209.105 94.188,208.989 94.066,208.989 94.165 M169.688 100.097 C 169.387 100.758,169.445 100.898,169.770 100.298 C 169.922 100.018,170.012 99.755,169.971 99.714 C 169.930 99.673,169.803 99.846,169.688 100.097 M212.041 100.808 C 212.041 100.907,212.157 101.189,212.298 101.436 C 212.439 101.683,212.555 101.804,212.555 101.706 C 212.555 101.607,212.439 101.324,212.298 101.077 C 212.157 100.830,212.041 100.709,212.041 100.808 M168.970 101.713 C 168.669 102.373,168.727 102.514,169.052 101.914 C 169.204 101.634,169.294 101.371,169.253 101.330 C 169.212 101.289,169.085 101.461,168.970 101.713 M190.155 102.611 C 189.854 103.271,189.911 103.412,190.237 102.812 C 190.389 102.532,190.479 102.269,190.438 102.228 C 190.397 102.186,190.270 102.359,190.155 102.611 M235.740 105.476 C 235.740 105.575,235.855 105.857,235.996 106.104 C 236.138 106.351,236.253 106.472,236.253 106.373 C 236.253 106.275,236.138 105.992,235.996 105.745 C 235.855 105.498,235.740 105.377,235.740 105.476 M188.180 106.920 C 187.879 107.580,187.937 107.721,188.262 107.121 C 188.414 106.840,188.504 106.577,188.463 106.536 C 188.422 106.495,188.295 106.668,188.180 106.920 M236.458 107.092 C 236.458 107.190,236.573 107.473,236.715 107.720 C 236.856 107.967,236.971 108.088,236.971 107.989 C 236.971 107.890,236.856 107.608,236.715 107.361 C 236.573 107.114,236.458 106.993,236.458 107.092 M187.015 109.408 C 186.839 109.868,187.049 109.874,201.646 109.874 C 215.353 109.874,216.157 109.857,216.144 109.560 C 216.135 109.372,216.093 109.336,216.039 109.470 C 215.968 109.647,212.894 109.695,201.517 109.695 C 188.762 109.695,187.097 109.663,187.188 109.425 C 187.245 109.277,187.251 109.156,187.202 109.156 C 187.152 109.156,187.069 109.269,187.015 109.408 M162.686 115.717 C 162.385 116.377,162.443 116.518,162.768 115.918 C 162.920 115.637,163.011 115.375,162.970 115.333 C 162.929 115.292,162.801 115.465,162.686 115.717 M240.228 115.530 C 240.228 115.628,240.344 115.911,240.485 116.158 C 240.626 116.405,240.741 116.526,240.741 116.427 C 240.741 116.329,240.626 116.046,240.485 115.799 C 240.344 115.552,240.228 115.431,240.228 115.530 M161.968 117.333 C 161.667 117.993,161.725 118.134,162.050 117.533 C 162.202 117.253,162.293 116.990,162.251 116.949 C 162.210 116.908,162.083 117.081,161.968 117.333 M161.250 118.948 C 160.949 119.609,161.007 119.749,161.332 119.149 C 161.484 118.869,161.574 118.606,161.533 118.565 C 161.492 118.524,161.365 118.697,161.250 118.948 M242.742 121.095 C 242.742 121.194,242.857 121.477,242.998 121.724 C 243.139 121.970,243.255 122.092,243.255 121.993 C 243.255 121.894,243.139 121.611,242.998 121.364 C 242.857 121.118,242.742 120.996,242.742 121.095 M243.460 122.711 C 243.460 122.810,243.575 123.092,243.716 123.339 C 243.857 123.586,243.973 123.707,243.973 123.609 C 243.973 123.510,243.857 123.227,243.716 122.980 C 243.575 122.733,243.460 122.612,243.460 122.711 M178.753 127.783 C 178.707 127.857,188.915 127.917,201.436 127.917 C 213.958 127.917,224.165 127.857,224.119 127.783 C 224.074 127.709,213.866 127.648,201.436 127.648 C 189.006 127.648,178.799 127.709,178.753 127.783 M224.250 128.276 C 224.250 128.375,224.365 128.658,224.506 128.905 C 224.647 129.152,224.763 129.273,224.763 129.174 C 224.763 129.075,224.647 128.793,224.506 128.546 C 224.365 128.299,224.250 128.178,224.250 128.276 M225.327 130.610 C 225.327 130.709,225.442 130.992,225.583 131.239 C 225.725 131.486,225.840 131.607,225.840 131.508 C 225.840 131.409,225.725 131.127,225.583 130.880 C 225.442 130.633,225.327 130.512,225.327 130.610 M247.230 131.149 C 247.230 131.248,247.345 131.531,247.487 131.777 C 247.628 132.024,247.743 132.145,247.743 132.047 C 247.743 131.948,247.628 131.665,247.487 131.418 C 247.345 131.171,247.230 131.050,247.230 131.149 M154.966 132.952 C 154.666 133.612,154.723 133.753,155.048 133.153 C 155.200 132.873,155.291 132.610,155.250 132.569 C 155.209 132.528,155.081 132.700,154.966 132.952 M228.559 137.612 C 228.559 137.711,228.674 137.994,228.815 138.241 C 228.956 138.487,229.072 138.609,229.072 138.510 C 229.072 138.411,228.956 138.128,228.815 137.882 C 228.674 137.635,228.559 137.513,228.559 137.612 M250.462 138.330 C 250.462 138.429,250.577 138.712,250.718 138.959 C 250.859 139.206,250.975 139.327,250.975 139.228 C 250.975 139.129,250.859 138.846,250.718 138.600 C 250.577 138.353,250.462 138.232,250.462 138.330 M151.196 141.390 C 150.895 142.050,150.953 142.191,151.278 141.591 C 151.430 141.311,151.521 141.048,151.479 141.007 C 151.438 140.966,151.311 141.138,151.196 141.390 M150.478 143.006 C 150.177 143.666,150.235 143.807,150.560 143.207 C 150.712 142.926,150.802 142.664,150.761 142.623 C 150.720 142.581,150.593 142.754,150.478 143.006 M254.232 146.768 C 254.232 146.867,254.347 147.150,254.488 147.397 C 254.629 147.644,254.745 147.765,254.745 147.666 C 254.745 147.567,254.629 147.285,254.488 147.038 C 254.347 146.791,254.232 146.670,254.232 146.768 M147.965 148.571 C 147.664 149.232,147.721 149.372,148.046 148.772 C 148.198 148.492,148.289 148.229,148.248 148.188 C 148.207 148.147,148.079 148.320,147.965 148.571 M254.950 148.384 C 254.950 148.483,255.065 148.766,255.206 149.013 C 255.348 149.259,255.463 149.381,255.463 149.282 C 255.463 149.183,255.348 148.900,255.206 148.654 C 255.065 148.407,254.950 148.285,254.950 148.384 M235.022 151.616 C 235.022 151.715,235.137 151.997,235.278 152.244 C 235.419 152.491,235.535 152.612,235.535 152.513 C 235.535 152.415,235.419 152.132,235.278 151.885 C 235.137 151.638,235.022 151.517,235.022 151.616 M167.175 153.239 C 166.874 153.899,166.931 154.040,167.256 153.440 C 167.408 153.160,167.499 152.897,167.458 152.856 C 167.417 152.815,167.289 152.987,167.175 153.239 M236.278 154.309 C 236.278 154.408,236.394 154.690,236.535 154.937 C 236.676 155.184,236.792 155.305,236.792 155.206 C 236.792 155.108,236.676 154.825,236.535 154.578 C 236.394 154.331,236.278 154.210,236.278 154.309 M144.194 157.009 C 143.894 157.670,143.951 157.811,144.276 157.210 C 144.428 156.930,144.519 156.667,144.478 156.626 C 144.437 156.585,144.309 156.758,144.194 157.009 " stroke="none" fill="#cabcb7" fill-rule="evenodd"></path><path id="path2" d="M201.988 79.084 C 201.988 79.183,202.103 79.466,202.244 79.713 C 202.385 79.960,202.501 80.081,202.501 79.982 C 202.501 79.883,202.385 79.601,202.244 79.354 C 202.103 79.107,201.988 78.986,201.988 79.084 M224.250 79.623 C 224.250 79.722,224.365 80.004,224.506 80.251 C 224.647 80.498,224.763 80.619,224.763 80.521 C 224.763 80.422,224.647 80.139,224.506 79.892 C 224.365 79.645,224.250 79.524,224.250 79.623 M231.252 95.242 C 231.252 95.341,231.367 95.624,231.508 95.871 C 231.649 96.118,231.765 96.239,231.765 96.140 C 231.765 96.041,231.649 95.759,231.508 95.512 C 231.367 95.265,231.252 95.144,231.252 95.242 M167.175 105.483 C 166.874 106.144,166.931 106.284,167.256 105.684 C 167.408 105.404,167.499 105.141,167.458 105.100 C 167.417 105.059,167.289 105.232,167.175 105.483 M187.462 108.715 C 187.161 109.375,187.218 109.516,187.544 108.916 C 187.696 108.636,187.786 108.373,187.745 108.332 C 187.704 108.291,187.577 108.463,187.462 108.715 M160.173 121.103 C 159.872 121.763,159.929 121.904,160.255 121.304 C 160.407 121.023,160.497 120.761,160.456 120.719 C 160.415 120.678,160.288 120.851,160.173 121.103 M236.997 156.104 C 236.997 156.203,237.112 156.486,237.253 156.732 C 237.394 156.979,237.510 157.101,237.510 157.002 C 237.510 156.903,237.394 156.620,237.253 156.373 C 237.112 156.127,236.997 156.005,236.997 156.104 " stroke="none" fill="#ffffff" fill-rule="evenodd"></path><path id="path3" d="M197.157 38.338 C 196.856 38.998,196.913 39.139,197.238 38.539 C 197.390 38.259,197.481 37.996,197.440 37.955 C 197.399 37.914,197.271 38.086,197.157 38.338 M206.835 40.485 C 206.835 40.583,206.950 40.866,207.092 41.113 C 207.233 41.360,207.348 41.481,207.348 41.382 C 207.348 41.284,207.233 41.001,207.092 40.754 C 206.950 40.507,206.835 40.386,206.835 40.485 M211.323 50.539 C 211.323 50.637,211.439 50.920,211.580 51.167 C 211.721 51.414,211.836 51.535,211.836 51.436 C 211.836 51.338,211.721 51.055,211.580 50.808 C 211.439 50.561,211.323 50.440,211.323 50.539 M180.101 76.399 C 179.800 77.059,179.858 77.200,180.183 76.600 C 180.335 76.320,180.425 76.057,180.384 76.016 C 180.343 75.975,180.216 76.147,180.101 76.399 M201.339 78.647 C 201.274 78.753,201.269 78.887,201.329 78.947 C 201.388 79.006,201.436 78.950,201.436 78.823 C 201.436 78.636,201.489 78.635,201.710 78.818 C 201.938 79.008,201.965 78.997,201.870 78.751 C 201.740 78.413,201.512 78.369,201.339 78.647 M202.706 80.880 C 202.706 80.978,202.821 81.261,202.962 81.508 C 203.103 81.755,203.219 81.876,203.219 81.777 C 203.219 81.679,203.103 81.396,202.962 81.149 C 202.821 80.902,202.706 80.781,202.706 80.880 M225.327 81.777 C 225.327 81.876,225.442 82.159,225.583 82.406 C 225.725 82.653,225.840 82.774,225.840 82.675 C 225.840 82.576,225.725 82.294,225.583 82.047 C 225.442 81.800,225.327 81.679,225.327 81.777 M229.277 90.575 C 229.277 90.673,229.392 90.956,229.533 91.203 C 229.674 91.450,229.790 91.571,229.790 91.472 C 229.790 91.373,229.674 91.091,229.533 90.844 C 229.392 90.597,229.277 90.476,229.277 90.575 M167.920 103.546 C 167.859 103.719,167.774 103.941,167.733 104.039 C 167.691 104.138,167.785 104.062,167.940 103.871 C 168.222 103.522,168.307 103.232,168.127 103.232 C 168.075 103.232,167.982 103.373,167.920 103.546 M188.719 106.202 C 188.418 106.862,188.475 107.003,188.800 106.402 C 188.952 106.122,189.043 105.859,189.002 105.818 C 188.961 105.777,188.833 105.950,188.719 106.202 M166.097 107.638 C 165.797 108.298,165.854 108.439,166.179 107.839 C 166.331 107.558,166.422 107.296,166.381 107.254 C 166.340 107.213,166.212 107.386,166.097 107.638 M239.330 113.016 C 239.330 113.115,239.446 113.398,239.587 113.645 C 239.728 113.891,239.844 114.013,239.844 113.914 C 239.844 113.815,239.728 113.532,239.587 113.285 C 239.446 113.039,239.330 112.917,239.330 113.016 M243.819 123.070 C 243.819 123.169,243.934 123.452,244.075 123.698 C 244.217 123.945,244.332 124.066,244.332 123.968 C 244.332 123.869,244.217 123.586,244.075 123.339 C 243.934 123.092,243.819 122.971,243.819 123.070 M157.659 126.489 C 157.359 127.149,157.416 127.290,157.741 126.690 C 157.893 126.409,157.984 126.147,157.943 126.105 C 157.902 126.064,157.774 126.237,157.659 126.489 M177.767 130.259 C 177.466 130.919,177.524 131.060,177.849 130.460 C 178.001 130.180,178.091 129.917,178.050 129.876 C 178.009 129.835,177.882 130.007,177.767 130.259 M247.769 131.867 C 247.769 131.966,247.884 132.249,248.025 132.496 C 248.166 132.742,248.282 132.864,248.282 132.765 C 248.282 132.666,248.166 132.383,248.025 132.136 C 247.884 131.890,247.769 131.768,247.769 131.867 M174.535 137.440 C 174.235 138.101,174.292 138.241,174.617 137.641 C 174.769 137.361,174.860 137.098,174.819 137.057 C 174.778 137.016,174.650 137.188,174.535 137.440 M253.334 144.255 C 253.334 144.354,253.450 144.636,253.591 144.883 C 253.732 145.130,253.847 145.251,253.847 145.153 C 253.847 145.054,253.732 144.771,253.591 144.524 C 253.450 144.277,253.334 144.156,253.334 144.255 M170.227 146.956 C 169.926 147.616,169.983 147.757,170.308 147.156 C 170.460 146.876,170.551 146.613,170.510 146.572 C 170.469 146.531,170.341 146.704,170.227 146.956 M257.822 154.309 C 257.822 154.408,257.938 154.690,258.079 154.937 C 258.220 155.184,258.336 155.305,258.336 155.206 C 258.336 155.108,258.220 154.825,258.079 154.578 C 257.938 154.331,257.822 154.210,257.822 154.309 M165.064 158.347 C 164.952 158.460,160.965 158.542,154.211 158.573 L 143.537 158.620 154.242 158.664 C 163.575 158.702,164.976 158.673,165.171 158.438 C 165.420 158.137,165.341 158.070,165.064 158.347 M237.955 158.389 C 237.992 158.571,240.198 158.618,248.833 158.618 C 257.468 158.618,259.674 158.571,259.711 158.389 C 259.737 158.263,259.717 158.243,259.666 158.344 C 259.606 158.466,255.990 158.528,248.833 158.528 C 241.676 158.528,238.061 158.466,238.000 158.344 C 237.950 158.243,237.929 158.263,237.955 158.389 " stroke="none" fill="#ffffff" fill-rule="evenodd"></path></g></svg>