<svg id="svg" version="1.1" viewBox="0 0 400 205.25" xmlns="http://www.w3.org/2000/svg" xmlns:xlink="http://www.w3.org/1999/xlink" ><g id="svgg"><path id="path0" d="M0.000 194.559 L 0.000 205.339 91.016 205.306 C 142.431 205.288,178.950 205.203,174.949 205.112 C 167.881 204.950,161.330 204.693,154.723 204.320 C 152.803 204.211,149.014 204.025,146.304 203.905 C 143.593 203.785,139.805 203.554,137.885 203.392 C 135.965 203.229,132.177 202.951,129.466 202.773 C 126.756 202.595,123.799 202.362,122.895 202.254 C 121.992 202.146,119.358 201.916,117.043 201.743 C 114.728 201.570,112.048 201.337,111.088 201.225 C 110.128 201.113,107.864 200.880,106.057 200.707 C 104.251 200.535,101.987 200.304,101.027 200.194 C 100.067 200.084,97.572 199.811,95.483 199.586 C 93.393 199.362,90.298 198.995,88.604 198.770 C 86.910 198.546,83.953 198.166,82.033 197.927 C 73.549 196.871,70.435 196.449,64.579 195.564 C 63.450 195.393,61.648 195.128,60.575 194.975 C 59.502 194.822,58.024 194.592,57.290 194.465 C 56.555 194.339,54.430 194.006,52.567 193.726 C 50.703 193.446,48.486 193.082,47.639 192.915 C 46.792 192.749,45.175 192.464,44.045 192.281 C 41.330 191.842,36.874 191.067,34.702 190.657 C 33.742 190.475,32.449 190.247,31.828 190.149 C 30.666 189.966,26.343 189.140,23.614 188.579 C 22.152 188.278,18.668 187.608,15.112 186.944 C 14.220 186.777,13.111 186.543,12.648 186.423 C 12.185 186.303,11.114 186.075,10.267 185.916 C 9.420 185.757,7.710 185.399,6.468 185.120 C 2.564 184.244,0.386 183.778,0.190 183.778 C 0.076 183.778,0.000 188.096,0.000 194.559 M397.331 184.391 C 396.371 184.590,394.014 185.089,392.094 185.500 C 390.175 185.911,386.478 186.665,383.881 187.177 C 381.283 187.688,378.835 188.197,378.439 188.308 C 378.044 188.419,376.427 188.733,374.846 189.007 C 373.265 189.281,370.493 189.788,368.686 190.134 C 364.843 190.871,359.273 191.850,355.667 192.423 C 354.266 192.645,353.063 192.863,352.993 192.906 C 352.922 192.950,351.481 193.179,349.790 193.416 C 348.098 193.652,346.022 193.985,345.175 194.154 C 344.328 194.324,342.295 194.644,340.657 194.865 C 337.519 195.288,333.507 195.874,330.082 196.408 C 328.953 196.584,326.550 196.909,324.743 197.130 C 322.936 197.350,320.534 197.665,319.405 197.828 C 315.309 198.420,305.812 199.515,297.947 200.301 C 295.180 200.578,292.177 200.900,291.273 201.016 C 290.370 201.132,287.829 201.370,285.626 201.544 C 283.424 201.718,280.282 201.993,278.645 202.157 C 277.007 202.320,274.281 202.549,272.587 202.665 C 270.893 202.782,267.059 203.059,264.066 203.281 C 261.073 203.502,255.621 203.828,251.951 204.004 C 248.280 204.181,243.937 204.413,242.300 204.520 C 239.713 204.688,228.442 205.040,220.534 205.199 C 219.122 205.227,258.925 205.270,308.984 205.294 L 400.000 205.339 400.000 194.661 L 400.000 183.984 399.538 184.007 C 399.284 184.019,398.291 184.193,397.331 184.391 " stroke="none" fill="#fff" fill-rule="evenodd"></path></g></svg>